<?xml version="1.0" encoding="utf-8"?>
<!-- Generator: Adobe Illustrator 16.0.2, SVG Export Plug-In . SVG Version: 6.00 Build 0)  -->
<!DOCTYPE svg PUBLIC "-//W3C//DTD SVG 1.1//EN" "http://www.w3.org/Graphics/SVG/1.1/DTD/svg11.dtd">
<svg version="1.1" id="Layer_1" xmlns="http://www.w3.org/2000/svg" xmlns:xlink="http://www.w3.org/1999/xlink" x="0px" y="0px"
	 width="200.141px" height="200px" viewBox="0 0 200.141 200" enable-background="new 0 0 200.141 200" xml:space="preserve">
<g>
	<g>
		<path fill="#FFFFFF" d="M146.803,102.281c0,0,0.02-0.479,0.04-1.247c-0.015-0.263-0.001-0.554,0.013-0.864
			c0.023-0.556,0.051-1.187-0.055-1.813c-0.098-0.959-0.156-1.923-0.201-2.646c-0.043-0.713-0.068-1.107-0.133-1.323
			c-0.07-0.358-0.398-2.056-0.67-3.778c-0.479-1.602-0.9-3.238-1.002-3.635c-0.004-0.161-0.115-0.442-0.445-1.278
			c-0.266-0.673-0.621-1.57-0.931-2.458c-0.187-0.635-0.483-1.194-0.745-1.688c-0.146-0.274-0.282-0.53-0.393-0.796
			c-0.312-0.623-0.547-1.058-0.549-1.058c-0.011-0.024-0.208-0.458-0.539-1.158l-0.572-0.889c-0.271-0.417-0.566-0.873-0.847-1.315
			c-0.597-1.047-1.091-1.789-1.495-2.243c-0.447-0.59-0.775-0.956-0.775-0.956l-0.001,0.001c-0.571-0.724-4.138-5.069-5.25-5.729
			c-0.091-0.08-0.423-0.371-0.91-0.789c-0.207-0.156-0.418-0.357-0.646-0.571c-0.404-0.382-0.863-0.815-1.416-1.147
			c-1.578-1.071-3.14-2.236-3.207-2.28c-0.018-0.009-1.734-0.92-3.355-1.883c-0.539-0.354-1.125-0.583-1.643-0.785
			c-0.297-0.116-0.576-0.224-0.842-0.359c-0.475-0.202-0.843-0.361-1.008-0.433c-0.865-0.729-7.502-2.384-7.561-2.384l-0.025,0
			c-0.158-0.033-0.553-0.117-1.057-0.23c-0.736-0.232-1.734-0.336-2.688-0.411c-0.427-0.052-0.849-0.108-1.249-0.162
			c-0.514-0.068-0.99-0.132-1.438-0.178h-1.206c-0.003,0-0.492,0-1.222-0.021l-0.132,0.002c-0.203,0-0.423-0.011-0.656-0.023
			c-0.634-0.032-1.379-0.041-1.897,0.044c-0.944,0.097-1.892,0.155-2.608,0.2c-0.917,0.057-1.225,0.076-1.373,0.144
			c-0.406,0.083-2.064,0.413-3.762,0.66c-1.636,0.488-3.306,0.92-3.663,1.011c-0.146,0.004-0.346,0.079-1.272,0.444
			c-0.67,0.265-1.559,0.616-2.441,0.923c-0.661,0.198-1.25,0.517-1.771,0.799c-0.243,0.132-0.47,0.255-0.69,0.356l-1.079,0.53
			c0,0-0.44,0.2-1.143,0.545c-0.612,0.396-1.424,0.911-2.221,1.415c-0.992,0.568-1.753,1.076-2.258,1.505
			c-0.548,0.453-0.922,0.747-0.924,0.749l0.008,0.01c-1.185,0.7-5.664,4.953-5.802,5.311l-0.004,0.013
			c-0.119,0.14-0.38,0.447-0.737,0.85c-0.164,0.224-0.375,0.449-0.601,0.691c-0.371,0.397-0.791,0.848-1.11,1.38
			c-1.088,1.582-2.235,3.161-2.265,3.208c-0.009,0.017-0.917,1.716-1.882,3.337c-0.381,0.571-0.615,1.177-0.822,1.711
			c-0.106,0.276-0.205,0.533-0.322,0.767l-0.494,1.109l0.039,0.017c-0.928,1.317-2.348,7.287-2.355,7.354l-0.011,0.129
			c-0.043,0.176-0.138,0.569-0.249,1.076c-0.179,0.606-0.309,1.462-0.414,2.716c-0.119,0.938-0.237,1.87-0.335,2.627V98.6
			c0,0.003,0,0.489-0.021,1.229c0.015,0.257-0.002,0.552-0.019,0.868c-0.029,0.561-0.063,1.198,0.041,1.81
			c0.09,0.872,0.146,1.748,0.191,2.441c0.057,0.882,0.085,1.327,0.173,1.549c0.084,0.439,0.396,2.097,0.642,3.777
			c0.481,1.545,0.899,3.137,1.014,3.584c0.013,0.247,0.188,0.688,0.539,1.567c0.252,0.634,0.565,1.421,0.843,2.19
			c0.177,0.643,0.487,1.217,0.761,1.725c0.14,0.26,0.272,0.502,0.373,0.738c0.315,0.673,0.536,1.092,0.537,1.092l0.54,1.133
			l1.419,2.23c0.494,0.83,1.005,1.689,1.515,2.244c0.434,0.549,0.728,0.941,0.729,0.943l0.014-0.01
			c0.568,0.718,4.133,5.03,5.263,5.743l0.92,0.781c0.194,0.153,0.392,0.343,0.604,0.544c0.418,0.398,0.892,0.85,1.461,1.179
			c1.583,1.073,3.145,2.22,3.208,2.262c0.017,0.009,1.717,0.92,3.353,1.88c0.552,0.378,1.15,0.613,1.678,0.822
			c0.285,0.113,0.553,0.217,0.801,0.345l1.008,0.454c0.876,0.694,7.501,2.361,7.559,2.361h0.011
			c0.155,0.033,0.557,0.118,1.079,0.232c0.717,0.232,1.721,0.333,2.673,0.414c0.969,0.117,1.935,0.238,2.683,0.338l1.192-0.001
			c0,0,0.491,0.005,1.257,0.022l0.13-0.002c0.202,0,0.423,0.012,0.657,0.023c0.277,0.014,0.571,0.029,0.874,0.029
			c0.39,0,0.733-0.025,1.025-0.074c0.884-0.092,1.776-0.149,2.477-0.194c0.846-0.054,1.282-0.082,1.505-0.164
			c0.42-0.077,2.064-0.378,3.766-0.647c1.598-0.482,3.26-0.91,3.645-1.008h0.007c0.175,0,0.436-0.098,1.573-0.557
			c0.621-0.251,1.381-0.558,2.117-0.832c0.649-0.175,1.216-0.48,1.715-0.75c0.268-0.144,0.518-0.279,0.779-0.389
			c0.625-0.311,1.055-0.508,1.082-0.521c0.007-0.004,0.43-0.232,1.135-0.547c0.594-0.378,1.428-0.914,2.211-1.422
			c0.832-0.496,1.692-1.01,2.238-1.512c0.576-0.438,0.957-0.739,0.957-0.739l-0.004-0.004c1.201-0.685,5.629-4.923,5.776-5.31
			l0.735-0.88c0.149-0.19,0.342-0.391,0.548-0.606c0.396-0.414,0.847-0.884,1.177-1.438c1.069-1.598,2.232-3.136,2.279-3.206
			c0.009-0.017,0.919-1.739,1.875-3.368c0.398-0.567,0.639-1.193,0.852-1.746c0.098-0.258,0.191-0.5,0.296-0.718
			c0.298-0.655,0.5-1.114,0.5-1.114l-0.04-0.018c0.928-1.328,2.356-7.342,2.36-7.41l0.002-0.056c0.04-0.166,0.136-0.563,0.251-1.075
			c0.211-0.749,0.313-1.73,0.41-2.673c0.119-0.954,0.236-1.929,0.318-2.687V102.281z M146.056,100.137
			c-0.015,0.338-0.027,0.655-0.013,0.908c-0.02,0.729-0.039,1.203-0.039,1.221l0.002,1.164c-0.08,0.711-0.197,1.683-0.316,2.641
			c-0.095,0.916-0.193,1.864-0.391,2.566c-0.156,0.691-0.273,1.164-0.273,1.166l-0.107,0.439l0.045,0.006
			c-0.288,1.291-1.535,5.484-1.988,6.508l-0.059-0.02l-0.147,0.334c-0.001,0-0.2,0.455-0.492,1.098
			c-0.11,0.229-0.212,0.49-0.319,0.771c-0.195,0.509-0.416,1.086-0.775,1.6c-0.973,1.653-1.883,3.374-1.877,3.374v-0.001
			c-0.026,0.036-1.195,1.581-2.281,3.206c-0.295,0.494-0.711,0.929-1.079,1.313c-0.226,0.236-0.435,0.456-0.589,0.652l-1.046,1.231
			l0.046,0.042c-0.76,0.877-4.02,3.797-5.031,4.574l-0.024-0.036l-0.331,0.262c-0.001,0.001-0.375,0.298-0.971,0.753
			c-0.514,0.471-1.34,0.962-2.15,1.445c-0.793,0.516-1.623,1.05-2.163,1.397c-0.675,0.297-1.116,0.535-1.116,0.536
			c-0.023,0.01-0.457,0.209-1.056,0.509c-0.259,0.106-0.534,0.254-0.827,0.413c-0.484,0.26-0.984,0.53-1.578,0.691
			c-0.779,0.289-1.547,0.599-2.175,0.852c-0.388,0.156-0.785,0.316-1.033,0.412l-0.358,0.09c-0.02,0.006-1.934,0.486-3.711,1.027
			c-1.93,0.301-3.837,0.658-3.837,0.658L107.666,144v0.002c-0.242,0.022-0.615,0.047-0.98,0.07
			c-0.709,0.045-1.611,0.104-2.531,0.199c-0.5,0.082-1.171,0.068-1.751,0.039c-0.249-0.014-0.483-0.025-0.698-0.025l-0.143,0.002
			c-0.72,0-1.207-0.021-1.228-0.021l-1.154,0.004c-0.698-0.096-1.668-0.217-2.656-0.336c-0.88-0.076-1.872-0.174-2.545-0.391
			c-0.717-0.158-1.195-0.259-1.195-0.259l-0.42-0.088l-0.003,0.024c-1.292-0.295-5.461-1.537-6.507-1.988l0.019-0.051l-1.412-0.635
			c-0.251-0.13-0.543-0.246-0.855-0.369c-0.513-0.202-1.042-0.412-1.543-0.753c-1.654-0.972-3.348-1.88-3.356-1.88h0
			c-0.03-0.021-1.597-1.172-3.209-2.264c-0.511-0.297-0.93-0.695-1.335-1.082c-0.23-0.219-0.447-0.424-0.647-0.582l-1.18-1.002
			l-0.039,0.036c-0.845-0.735-3.792-4.017-4.611-5.06l0.019-0.013l-0.253-0.339c0,0-0.3-0.399-0.761-0.98
			c-0.473-0.517-0.984-1.377-1.442-2.146l-1.402-2.197l-0.524-1.105c-0.002-0.004-0.217-0.412-0.521-1.059
			c-0.104-0.244-0.246-0.509-0.399-0.793c-0.253-0.469-0.541-1.001-0.703-1.585c-0.29-0.808-0.607-1.604-0.862-2.245
			c-0.149-0.374-0.301-0.757-0.392-1.006l0.002-0.002l-0.085-0.338c-0.005-0.02-0.486-1.916-1.043-3.686
			c-0.372-2.588-0.537-3.594-0.697-3.975c-0.029-0.168-0.063-0.699-0.097-1.215c-0.045-0.703-0.103-1.596-0.198-2.509
			c-0.092-0.551-0.062-1.141-0.035-1.662c0.019-0.347,0.034-0.671,0.019-0.92c0.021-0.721,0.021-1.218,0.021-1.218l-0.003-1.158
			c0.095-0.706,0.214-1.641,0.339-2.637c0.096-1.16,0.221-1.989,0.388-2.561c0.156-0.708,0.274-1.179,0.275-1.182l0.1-0.396
			l-0.047-0.011c0.265-1.222,1.518-5.433,1.989-6.523l0.053,0.023l0.649-1.455c0.12-0.238,0.229-0.519,0.345-0.821
			c0.191-0.496,0.408-1.058,0.751-1.572c0.978-1.642,1.887-3.341,1.883-3.341l0,0c0.018-0.024,1.161-1.6,2.261-3.199
			c0.289-0.48,0.662-0.881,1.023-1.268c0.249-0.267,0.48-0.518,0.637-0.735c0.481-0.541,0.8-0.923,0.8-0.923l0.246-0.294
			l-0.035-0.032c0.787-0.877,4.088-3.833,5.069-4.594l0.023,0.028l0.307-0.242c0,0,0.38-0.299,0.943-0.765
			c0.471-0.401,1.192-0.88,2.156-1.432c0.814-0.515,1.629-1.031,2.2-1.404c0.648-0.315,1.08-0.511,1.095-0.519l1.077-0.529
			c0.226-0.103,0.47-0.234,0.73-0.375c0.486-0.264,1.037-0.562,1.635-0.741c0.911-0.317,1.811-0.672,2.489-0.94
			c0.313-0.124,0.632-0.25,0.822-0.324l0.283-0.072c0.019-0.005,1.914-0.485,3.707-1.025c1.911-0.274,3.829-0.671,3.848-0.675
			l0.209-0.043c0.213-0.02,0.589-0.043,0.957-0.066c0.725-0.044,1.685-0.104,2.665-0.205c0.498-0.081,1.169-0.068,1.751-0.039
			c0.248,0.013,0.482,0.024,0.697,0.024l0.132-0.002c0.722,0.021,1.222,0.021,1.222,0.021l1.163-0.002
			c0.398,0.043,0.868,0.106,1.374,0.173c0.403,0.054,0.829,0.111,1.275,0.165c0.923,0.073,1.868,0.17,2.56,0.387
			c0.7,0.159,1.18,0.258,1.18,0.258l0.375,0.078l0.007-0.03c1.224,0.266,5.49,1.543,6.548,2.012L118.46,59.7l0.351,0.153
			c0,0,0.454,0.199,1.084,0.466c0.261,0.134,0.566,0.254,0.892,0.381c0.503,0.196,1.024,0.4,1.509,0.717
			c1.633,0.971,3.344,1.879,3.354,1.879c0.033,0.025,1.599,1.193,3.202,2.28c0.497,0.299,0.923,0.701,1.298,1.055
			c0.25,0.236,0.484,0.455,0.691,0.611c0.551,0.474,0.908,0.788,0.909,0.789l0.28,0.248l0.047-0.046
			c0.884,0.759,3.875,4.107,4.612,5.084l-0.054,0.046l0.273,0.306c0.004,0.005,0.313,0.352,0.753,0.929
			c0.386,0.436,0.85,1.133,1.428,2.148c0.291,0.46,0.589,0.919,0.86,1.339l0.543,0.838c0.314,0.67,0.512,1.104,0.525,1.131
			c0.002,0.003,0.236,0.434,0.535,1.032c0.108,0.262,0.256,0.541,0.414,0.839c0.244,0.46,0.521,0.981,0.69,1.557
			c0.319,0.919,0.679,1.827,0.948,2.508c0.128,0.325,0.26,0.657,0.332,0.858l0.059,0.231c0.004,0.019,0.482,1.911,1.023,3.706
			c0.294,1.892,0.672,3.807,0.676,3.826l0.041,0.209c0.02,0.209,0.043,0.579,0.064,0.938c0.045,0.731,0.105,1.707,0.208,2.703
			C146.104,99.033,146.079,99.594,146.056,100.137z"/>
		<path fill="#FFFFFF" d="M88.739,47.886c0.533,0,1.07-0.061,1.594-0.179c1.879-0.417,3.483-1.545,4.516-3.175
			c1.031-1.628,1.365-3.558,0.939-5.435c-0.744-3.26-3.705-5.626-7.041-5.626c-0.523,0-1.049,0.058-1.565,0.172
			c-3.87,0.878-6.316,4.738-5.454,8.605C82.478,45.568,85.361,47.886,88.739,47.886z M87.358,34.425
			c0.458-0.102,0.926-0.153,1.391-0.153c2.966,0,5.599,2.104,6.26,5.003c0.378,1.667,0.082,3.382-0.835,4.829
			c-0.918,1.449-2.343,2.451-4.016,2.822c-0.467,0.106-0.945,0.159-1.419,0.159c-3.002,0-5.564-2.061-6.229-5.011
			C81.743,38.637,83.919,35.205,87.358,34.425z"/>
		<path fill="#FFFFFF" d="M190.057,93.074c-0.058-0.686-0.525-1.227-1.083-1.259c0,0-1.728-0.119-3.474-0.217
			c-0.542-0.032-1.069-0.065-1.565-0.097c-0.054-0.578-0.104-1.067-0.142-1.41c-0.042-0.412-0.084-0.659-0.084-0.659
			s-0.133-0.782-0.354-1.995c0.191-0.062,0.395-0.13,0.602-0.199c0.289-0.097,0.588-0.197,0.897-0.293
			c1.644-0.578,3.307-1.149,3.319-1.154c0.522-0.199,0.825-0.87,0.689-1.513l-0.564-3.212c-0.435-1.541-0.828-3.099-0.834-3.12
			c-0.188-0.614-0.693-1.059-1.2-1.059l-3.592,0.401c-0.543,0.065-1.073,0.128-1.56,0.182l-0.714-2.581
			c-0.121-0.327-0.286-0.773-0.495-1.342c0.351-0.192,0.735-0.398,1.127-0.607l0.261-0.14c1.497-0.849,3.015-1.697,3.015-1.697
			c0.551-0.273,0.663-1.029,0.452-1.607l-1.146-3.009c-0.56-1.555-1.302-2.964-1.325-3.008c-0.281-0.592-0.987-0.952-1.46-0.807
			c0,0-1.688,0.475-3.41,0.983c-0.502,0.155-1.016,0.313-1.473,0.459l-0.914-1.83c0,0-0.366-0.731-0.938-1.857
			c0.39-0.304,0.811-0.635,1.225-0.985c1.345-1.07,2.692-2.176,2.692-2.176c0.441-0.347,0.5-1.083,0.132-1.677l-3.447-5.497
			c-0.389-0.521-1.043-0.778-1.584-0.538c0,0-1.59,0.771-3.18,1.567l-0.225,0.114c-0.402,0.203-0.801,0.403-1.17,0.597
			c-0.77-0.971-1.277-1.624-1.277-1.624c-0.004-0.004-0.478-0.637-1.254-1.639c0.316-0.359,0.68-0.754,1.08-1.192
			c1.148-1.348,2.279-2.655,2.281-2.656c0.389-0.454,0.324-1.229-0.131-1.681l-4.432-4.749c-0.466-0.462-1.166-0.62-1.646-0.298
			c0,0-1.411,1.033-2.797,2.058c-0.396,0.286-0.773,0.571-1.131,0.841l-0.143,0.107c-0.933-0.81-1.531-1.352-1.535-1.356
			c0,0-0.611-0.54-1.551-1.353c0.217-0.356,0.456-0.742,0.699-1.135l1.922-3.234c0.285-0.479,0.104-1.176-0.42-1.619l-0.738-0.638
			c-0.439-0.42-1.088-0.893-1.795-1.407c-1.322-0.909-2.625-1.857-2.631-1.862c-0.531-0.372-1.29-0.375-1.67,0.011l-2.418,2.538
			c-0.244,0.253-0.491,0.518-0.727,0.769c-0.121,0.129-0.238,0.254-0.35,0.373c-1.012-0.687-1.68-1.153-1.708-1.171l-1.756-1.016
			c0.188-0.45,0.393-0.96,0.581-1.467c0.632-1.623,1.246-3.243,1.246-3.243c0.217-0.525-0.096-1.2-0.706-1.533
			c0,0-1.391-0.793-2.81-1.582c-0.683-0.4-1.417-0.77-1.998-1.007c-0.556-0.259-0.934-0.418-0.934-0.418
			c-0.596-0.274-1.35-0.133-1.652,0.323c-0.002,0.002-0.947,1.464-1.947,2.901c-0.283,0.458-0.58,0.916-0.85,1.322
			c-1.138-0.479-1.881-0.803-1.881-0.804c0,0-0.754-0.331-1.902-0.822l0.045-0.218c0.084-0.412,0.174-0.854,0.287-1.335l0.634-3.399
			c0.12-0.552-0.29-1.142-0.964-1.376l-6.174-1.987c-0.611-0.185-1.33,0.097-1.588,0.617c0,0-0.715,1.59-1.411,3.22
			c-0.112,0.27-0.229,0.54-0.345,0.803c-0.099,0.226-0.195,0.448-0.285,0.66c-1.223-0.289-2.014-0.451-2.015-0.451
			c-0.001,0-0.809-0.164-2.007-0.418c0.016-0.502,0.033-1.068,0.049-1.621c0.037-1.746,0.059-3.493,0.059-3.498
			c0-0.549-0.516-1.087-1.207-1.229l-6.418-0.75c-0.691-0.087-1.326,0.285-1.452,0.817l-0.832,3.381
			c-0.114,0.547-0.239,1.067-0.357,1.54c-1.239-0.036-2.048-0.075-2.067-0.076c-0.003,0-0.809,0-2.049-0.032l-0.025-0.18
			c-0.059-0.438-0.124-0.918-0.207-1.391l-0.554-3.433c-0.063-0.554-0.655-0.988-1.33-0.988h-0.001c0,0-0.407-0.02-1.017-0.02
			c-0.566,0-1.419,0.018-2.261,0.1l-3.235,0.239c-0.684,0.057-1.245,0.536-1.278,1.09c0,0.001-0.099,1.74-0.238,3.478
			c-0.015,0.535-0.043,1.07-0.075,1.555c-0.377,0.034-0.708,0.068-0.997,0.097l-0.455,0.046c-0.351,0.057-0.558,0.075-0.608,0.082
			c-0.001,0-0.78,0.15-1.99,0.372c-0.107-0.324-0.223-0.668-0.343-1.023l-0.167-0.495c-0.574-1.642-1.127-3.305-1.141-3.342
			c-0.216-0.488-0.826-0.779-1.504-0.666c0,0-1.589,0.276-3.208,0.58l-3.131,0.833c-0.647,0.174-1.108,0.738-1.048,1.281l0.36,3.504
			c0.077,0.538,0.144,1.076,0.199,1.553l-1.983,0.546l-1.13,0.378c-0.235,0.084-0.5,0.179-0.808,0.294
			c-0.235-0.436-0.49-0.915-0.747-1.398c-0.852-1.503-1.682-3.027-1.691-3.043c-0.275-0.457-0.951-0.661-1.618-0.422
			c-0.001,0-1.505,0.592-3.005,1.146c-1.533,0.557-2.944,1.299-2.995,1.326c-0.604,0.301-0.956,0.952-0.801,1.478
			c0,0,0.475,1.686,0.97,3.346c0.144,0.531,0.303,1.049,0.452,1.524c-1.115,0.548-1.833,0.909-1.839,0.912
			c-0.001,0.001-0.703,0.371-1.831,0.948c-0.306-0.393-0.645-0.824-0.981-1.244l-2.188-2.703c-0.357-0.418-1.135-0.464-1.667-0.119
			l-5.518,3.466c-0.535,0.396-0.761,1.095-0.516,1.59c0,0,0.773,1.564,1.55,3.153c0.15,0.301,0.305,0.601,0.455,0.892
			c0.092,0.179,0.183,0.354,0.269,0.523c-0.991,0.752-1.639,1.257-1.639,1.257c-0.004,0.003-0.662,0.499-1.639,1.253
			c-0.137-0.122-0.278-0.246-0.422-0.373c-0.249-0.219-0.506-0.445-0.767-0.684c-1.329-1.149-2.632-2.298-2.653-2.315
			c-0.444-0.343-1.266-0.26-1.689,0.164l-4.745,4.432c-0.49,0.49-0.61,1.199-0.279,1.647c0,0,1.012,1.39,2.045,2.783l0.188,0.249
			c0.271,0.358,0.529,0.7,0.764,1.023l-1.373,1.556c-0.001,0.002-0.524,0.614-1.345,1.528c-0.421-0.25-0.879-0.525-1.335-0.817
			c-1.51-0.913-3.018-1.808-3.026-1.813c-0.47-0.262-1.201-0.059-1.599,0.414c0,0-0.28,0.301-0.68,0.764
			c-0.384,0.438-0.885,1.094-1.375,1.799c-0.928,1.323-1.855,2.625-1.855,2.625c-0.403,0.541-0.403,1.276,0.007,1.681
			c0.001,0.001,1.266,1.189,2.518,2.4c0.399,0.367,0.797,0.745,1.153,1.085l-1.19,1.694l-0.997,1.757
			c-0.142-0.056-0.29-0.114-0.44-0.172c-0.334-0.131-0.685-0.268-1.046-0.416l-3.241-1.223c-0.514-0.211-1.191,0.096-1.533,0.69
			l-1.563,2.811c-0.469,0.821-0.817,1.503-1.027,2.013c-0.256,0.556-0.415,0.913-0.415,0.913c-0.282,0.611-0.134,1.336,0.336,1.65
			l4.217,2.824c-0.489,1.126-0.81,1.875-0.81,1.875c-0.001,0.003-0.328,0.746-0.821,1.88c-0.167-0.034-0.339-0.068-0.516-0.103
			c-0.327-0.064-0.667-0.132-1.016-0.206c-1.727-0.337-3.411-0.653-3.417-0.654l-0.164-0.014c-0.521,0-1.025,0.414-1.197,0.978
			l-1.989,6.177c-0.186,0.652,0.086,1.364,0.602,1.585l3.219,1.433l0.355,0.147c0.384,0.16,0.766,0.318,1.111,0.472
			c-0.272,1.206-0.435,1.995-0.435,1.995c-0.001,0.007-0.188,0.834-0.428,2.019l-5.129-0.088c-0.567,0-1.098,0.512-1.21,1.184
			l-0.773,6.422c-0.084,0.682,0.272,1.312,0.843,1.468c0,0,1.679,0.397,3.377,0.834c0.526,0.111,1.05,0.223,1.524,0.335
			c-0.037,1.242-0.057,2.079-0.057,2.08c0,0-0.017,0.792-0.037,2.041c-0.351,0.049-0.726,0.105-1.104,0.161l-3.92,0.623
			c-0.552,0.095-0.984,0.696-0.984,1.348c-0.003,0.067-0.08,1.654,0.081,3.287c0.138,1.596,0.255,3.191,0.255,3.191
			c0.026,0.672,0.517,1.265,1.066,1.295l3.494,0.238c0.303,0.02,0.611,0.033,0.912,0.047c0.224,0.01,0.444,0.021,0.654,0.032
			l0.036,0.438c0.031,0.391,0.058,0.723,0.087,1.008c0.059,0.378,0.1,0.6,0.1,0.6c0.002,0.012,0.134,0.812,0.354,2.008
			c-0.263,0.09-0.541,0.182-0.826,0.275l-3.987,1.376c-0.521,0.187-0.828,0.829-0.713,1.502c0,0.001,0.297,1.585,0.582,3.224
			l0.836,3.115c0.177,0.617,0.667,1.048,1.192,1.048l3.58-0.361l0.426-0.051c0.4-0.048,0.792-0.095,1.156-0.142
			c0.325,1.182,0.542,1.963,0.544,1.969c0.001,0.004,0.058,0.198,0.169,0.629c0.072,0.184,0.155,0.411,0.251,0.676l0.241,0.65
			c-0.425,0.225-0.902,0.479-1.385,0.736l-3.063,1.709c-0.473,0.283-0.651,0.994-0.407,1.615l1.147,3.005
			c0.539,1.519,1.3,2.948,1.324,2.991c0.282,0.591,0.954,0.959,1.465,0.808c0.001-0.001,1.683-0.497,3.378-0.974
			c0.515-0.163,1.045-0.324,1.512-0.463c0.544,1.105,0.9,1.818,0.902,1.821c0.001,0.003,0.365,0.751,0.932,1.849l-3.91,3.173
			c-0.436,0.339-0.505,1.081-0.152,1.657l3.466,5.518c0.388,0.523,1.108,0.775,1.591,0.533c0.001,0,1.582-0.789,3.159-1.547
			c0.412-0.221,0.832-0.43,1.221-0.623l0.191-0.096c0.765,0.986,1.251,1.633,1.259,1.643c0.001,0.001,0.5,0.623,1.26,1.604
			c-0.195,0.224-0.405,0.462-0.621,0.707l-0.447,0.508c-1.152,1.307-2.301,2.636-2.304,2.641c-0.37,0.44-0.301,1.221,0.15,1.702
			l4.424,4.721c0.46,0.487,1.243,0.597,1.634,0.284c0,0,1.409-1.009,2.82-2.041c0.257-0.19,0.515-0.387,0.763-0.575
			c0.17-0.13,0.336-0.256,0.495-0.375c0.934,0.839,1.548,1.362,1.548,1.362l1.544,1.362c-0.256,0.419-0.541,0.879-0.83,1.343
			c-0.893,1.509-1.783,2.994-1.788,3.003c-0.271,0.48-0.101,1.178,0.412,1.637c0.003,0.003,0.316,0.256,0.756,0.64
			c0.425,0.387,1.025,0.851,1.78,1.377c1.33,0.953,2.639,1.884,2.651,1.893c0.567,0.372,1.3,0.352,1.654-0.035
			c0,0,1.21-1.249,2.407-2.505l0.553-0.594c0.185-0.197,0.364-0.389,0.534-0.573c0.996,0.72,1.664,1.185,1.691,1.201
			c0,0,0.7,0.401,1.767,0.988c-0.115,0.306-0.243,0.629-0.37,0.954l-0.204,0.521c-0.631,1.618-1.245,3.258-1.244,3.258
			c-0.219,0.507,0.082,1.174,0.688,1.52c0,0,1.409,0.792,2.813,1.565c0.769,0.437,1.453,0.815,2.011,1.024
			c0.555,0.259,0.916,0.416,0.916,0.416c0.599,0.271,1.346,0.129,1.647-0.319l2.48-3.708c0.12-0.181,0.238-0.358,0.351-0.531
			c1.131,0.512,1.869,0.836,1.876,0.839c0.001,0.001,0.748,0.311,1.888,0.807l-0.325,1.544c-0.318,1.702-0.655,3.407-0.657,3.419
			c-0.09,0.539,0.345,1.14,0.968,1.338l6.176,1.979c0.627,0.218,1.376-0.074,1.585-0.592c0,0,0.714-1.605,1.435-3.203
			c0.173-0.429,0.356-0.857,0.523-1.248l0.092-0.217c1.208,0.255,2.018,0.434,2.018,0.434s0.781,0.179,2.004,0.419
			c-0.004,0.498-0.019,1.05-0.036,1.603c-0.04,1.746-0.059,3.515-0.059,3.519c0,0.554,0.522,1.095,1.183,1.208l6.455,0.794
			c0.673,0.058,1.313-0.322,1.436-0.836c0,0,0.416-1.688,0.813-3.39l0.37-1.516c1.222,0.033,2.061,0.035,2.066,0.034
			c0.015,0,0.816,0.018,2.045,0.037c0.022,0.146,0.044,0.294,0.066,0.444c0.055,0.371,0.111,0.757,0.18,1.143l0.552,3.436
			c0.066,0.555,0.671,1.006,1.329,1.006h0.001c0,0,0.373,0.019,0.939,0.019c0.587,0,1.473-0.021,2.341-0.117l3.23-0.24
			c0.678-0.053,1.23-0.531,1.259-1.082l0.241-3.486c0.016-0.539,0.045-1.076,0.074-1.554l0.477-0.043
			c0.377-0.035,0.695-0.064,0.996-0.086c0.361-0.075,0.592-0.113,0.598-0.114l2.001-0.34c0.153,0.462,0.325,0.985,0.489,1.51
			c0.594,1.637,1.146,3.28,1.148,3.289c0.188,0.521,0.791,0.854,1.523,0.731l3.199-0.601l3.133-0.833
			c0.639-0.173,1.108-0.757,1.047-1.303c0,0-0.197-1.724-0.377-3.451l-0.034-0.294c-0.054-0.457-0.104-0.893-0.147-1.305
			c1.149-0.307,1.924-0.536,1.925-0.537c0.017-0.004,0.249-0.05,0.638-0.171c0.331-0.103,0.766-0.268,1.294-0.469l0.056-0.021
			c0.107,0.203,0.223,0.416,0.341,0.636l0.397,0.74c0.87,1.521,1.699,3.046,1.704,3.054c0.275,0.486,1.081,0.651,1.597,0.414
			c0,0,1.512-0.556,3.027-1.147c1.54-0.54,2.955-1.303,2.99-1.322c0.617-0.281,0.967-0.91,0.813-1.467l-0.975-3.38
			c-0.163-0.514-0.324-1.03-0.463-1.502l1.822-0.912c0,0,0.747-0.365,1.86-0.92l0.3,0.375c0.217,0.271,0.445,0.559,0.684,0.851
			l2.188,2.705c0.35,0.412,1.101,0.482,1.666,0.142l5.497-3.467c0.555-0.416,0.784-1.109,0.536-1.609c0,0-0.773-1.584-1.547-3.153
			l-0.72-1.422c0.987-0.749,1.618-1.235,1.619-1.236l1.633-1.274c0.188,0.167,0.387,0.345,0.589,0.526l0.603,0.54
			c1.347,1.147,2.652,2.296,2.657,2.301c0.426,0.361,1.246,0.296,1.702-0.132l4.738-4.44c0.481-0.453,0.61-1.188,0.286-1.641
			l-2.063-2.815c-0.32-0.433-0.641-0.865-0.939-1.256c0.806-0.933,1.348-1.526,1.354-1.533c0,0,0.537-0.609,1.344-1.561l4.385,2.637
			c0.472,0.265,1.174,0.088,1.607-0.403c0,0,0.281-0.32,0.643-0.779c0.381-0.4,0.84-0.986,1.402-1.787l1.866-2.62
			c0.396-0.563,0.39-1.298-0.009-1.667c0,0-1.271-1.232-2.52-2.42c-0.268-0.256-0.533-0.5-0.788-0.733
			c-0.127-0.116-0.251-0.23-0.37-0.341c0.702-1.006,1.168-1.656,1.191-1.691l0.996-1.775l0.402,0.16
			c0.338,0.135,0.693,0.275,1.064,0.427c1.624,0.614,3.246,1.245,3.264,1.251c0.523,0.178,1.178-0.135,1.51-0.718l1.585-2.813
			c0.485-0.854,0.817-1.512,1.006-1.99c0.255-0.554,0.433-0.926,0.437-0.935c0.278-0.614,0.129-1.339-0.339-1.649
			c-0.001-0.001-1.446-0.969-2.907-1.969c-0.383-0.236-0.756-0.475-1.109-0.701l-0.211-0.134c0.477-1.128,0.819-1.868,0.828-1.89
			c0.002-0.002,0.309-0.769,0.805-1.904l0.142,0.031c0.442,0.101,0.925,0.21,1.402,0.295c1.702,0.316,3.406,0.652,3.419,0.654
			l0.152,0.013c0.499,0,0.992-0.396,1.206-0.977l1.974-6.169c0.23-0.621-0.058-1.369-0.606-1.596c0,0-1.587-0.713-3.194-1.406
			c-0.439-0.191-0.869-0.374-1.262-0.541l-0.215-0.092c0.275-1.215,0.438-2.016,0.438-2.016c0.001-0.002,0.167-0.807,0.438-2.008
			c0.507,0.016,1.054,0.029,1.594,0.029c0.002,0,0.004,0,0.005,0l3.498,0.08c0.545,0,1.083-0.514,1.232-1.207l0.748-6.418
			c0.116-0.658-0.259-1.322-0.807-1.447c0,0-1.69-0.439-3.379-0.834l-0.567-0.136c-0.338-0.081-0.662-0.159-0.967-0.229
			c0.021-1.245,0.057-2.043,0.058-2.063c0-0.004,0-0.819,0.033-2.04c0.488-0.08,1.021-0.16,1.574-0.241l3.449-0.557
			c0.537-0.088,0.962-0.668,0.988-1.351c0.003-0.067,0.058-1.672-0.1-3.276L190.057,93.074z M189.596,99.553
			c-0.014,0.332-0.197,0.572-0.317,0.591l-3.442,0.556c-0.681,0.099-1.336,0.199-1.915,0.299l-0.331,0.057v0.463
			c-0.04,1.321-0.04,2.233-0.04,2.233c-0.001,0.017-0.04,0.867-0.06,2.179c-0.016,0.072-0.02,0.146-0.02,0.219v0.322l0.315,0.068
			c0.393,0.085,0.826,0.189,1.285,0.3l0.571,0.138c1.68,0.392,3.359,0.828,3.373,0.832c0.099,0.022,0.256,0.263,0.205,0.554
			l-0.745,6.403c-0.068,0.313-0.313,0.538-0.436,0.538l-3.497-0.08c-0.65,0-1.303-0.021-1.93-0.04l-0.422,0.059v0.413
			c-0.297,1.313-0.478,2.185-0.479,2.187c0,0.002-0.178,0.873-0.441,2.084c-0.061,0.122-0.061,0.246-0.061,0.336v0.265l0.75,0.319
			c0.391,0.166,0.816,0.347,1.255,0.539c1.604,0.69,3.185,1.4,3.196,1.406c0.131,0.055,0.264,0.343,0.168,0.6l-1.975,6.17
			c-0.096,0.262-0.31,0.438-0.459,0.438c0,0-1.709-0.336-3.418-0.653c-0.467-0.084-0.938-0.19-1.369-0.288l-0.822-0.184
			l-0.166,0.467c-0.535,1.221-0.869,2.053-0.869,2.053c-0.008,0.019-0.375,0.815-0.88,2.011c-0.027,0.042-0.036,0.072-0.017,0.062
			l-0.346,0.354l0.929,0.589c0.356,0.228,0.733,0.468,1.103,0.696c1.451,0.993,2.899,1.963,2.9,1.964
			c0.107,0.071,0.184,0.368,0.058,0.647c0,0-0.179,0.377-0.446,0.956c-0.184,0.464-0.5,1.089-0.967,1.911l-1.585,2.813
			c-0.143,0.251-0.35,0.396-0.54,0.36c0,0-1.627-0.631-3.244-1.243c-0.364-0.149-0.722-0.291-1.063-0.427l-1.05-0.421l-1.318,2.352
			c0,0-0.555,0.773-1.37,1.946l-0.195,0.281l0.247,0.236c0.196,0.188,0.409,0.383,0.632,0.586c0.25,0.23,0.512,0.471,0.775,0.723
			c1.246,1.188,2.516,2.416,2.521,2.422c0.074,0.068,0.094,0.358-0.094,0.625l-1.865,2.619c-0.542,0.771-0.977,1.327-1.354,1.727
			c-0.367,0.464-0.637,0.771-0.639,0.773c-0.17,0.191-0.426,0.344-0.607,0.239l-3.004-1.777l-1.824-1.135l-0.203,0.109
			c-0.096,0.052-0.164,0.121-0.233,0.194c-0.869,1.021-1.46,1.691-1.46,1.691c-0.003,0.004-0.6,0.658-1.488,1.688l-0.398,0.23
			l0.283,0.362c0.354,0.453,0.748,0.984,1.141,1.516l2.06,2.811c0.062,0.087,0.026,0.389-0.187,0.589l-4.738,4.439
			c-0.18,0.171-0.564,0.168-0.631,0.11c0,0-1.311-1.152-2.656-2.3l-0.592-0.53c-0.292-0.263-0.575-0.518-0.838-0.743l-0.208-0.179
			l-0.241,0.13c-0.037,0.02-0.076,0.047-0.176,0.118l-1.785,1.385c0,0-0.691,0.534-1.828,1.394l-0.344,0.185l1.047,2.067
			c0.772,1.565,1.545,3.148,1.546,3.151c0.058,0.116-0.03,0.414-0.272,0.598l-5.463,3.444c-0.219,0.132-0.549,0.125-0.631,0.028
			l-2.182-2.698c-0.237-0.291-0.464-0.576-0.678-0.846l-0.512-0.638l-0.232-0.224l-0.282,0.13c-0.038,0.018-0.095,0.044-0.154,0.088
			c-1.167,0.581-1.958,0.969-1.962,0.971l-1.981,0.992l-0.433,0.237l0.088,0.31c0.158,0.557,0.357,1.197,0.557,1.824l0.971,3.364
			c0.04,0.147-0.111,0.401-0.399,0.534c-0.015,0.008-1.421,0.765-2.911,1.287c-1.521,0.595-3.025,1.147-3.054,1.159
			c-0.226,0.103-0.528,0.053-0.594-0.063c0,0-0.835-1.533-1.702-3.051l-0.395-0.734c-0.178-0.328-0.346-0.642-0.494-0.927
			l-0.113-0.216h-0.242c-0.083,0-0.15,0.02-0.199,0.037l-0.336,0.123c-0.509,0.193-0.928,0.353-1.248,0.452
			c-0.342,0.105-0.543,0.147-0.591,0.158c-0.003,0.001-0.929,0.274-2.269,0.628l-0.329,0.087l0.034,0.339
			c0.05,0.514,0.114,1.068,0.183,1.656l0.034,0.289c0.18,1.727,0.377,3.455,0.377,3.455c0.014,0.12-0.179,0.363-0.459,0.439
			l-3.102,0.825l-3.164,0.593c-0.324,0.056-0.59-0.104-0.626-0.205c0,0-0.556-1.653-1.147-3.282
			c-0.199-0.64-0.417-1.296-0.597-1.833l-0.108-0.325l-2.674,0.454c0,0-0.245,0.04-0.571,0.112c-0.249,0.015-0.577,0.045-0.966,0.08
			l-0.619,0.058c-0.037,0-0.094,0.007-0.16,0.021h-0.374l-0.024,0.373c-0.039,0.562-0.079,1.239-0.098,1.902l-0.24,3.478
			c-0.007,0.119-0.213,0.309-0.521,0.333l-3.243,0.241c-0.847,0.094-1.7,0.113-2.268,0.113c-0.54,0-0.896-0.018-0.92-0.019
			c-0.318,0-0.545-0.212-0.558-0.317l-0.555-3.458c-0.068-0.385-0.124-0.762-0.177-1.126c-0.04-0.271-0.079-0.535-0.121-0.789
			l-0.056-0.335h-0.339h-0.13c-1.346-0.021-2.239-0.04-2.248-0.041c-0.003,0-0.882,0-2.173-0.037
			c-0.021-0.005-0.037-0.005-0.044-0.005l-0.433-0.19l-0.572,2.327c-0.398,1.702-0.812,3.385-0.813,3.389
			c-0.019,0.079-0.277,0.205-0.573,0.229l-6.423-0.79c-0.29-0.05-0.5-0.283-0.5-0.412c0,0,0.019-1.763,0.059-3.501
			c0.021-0.676,0.038-1.354,0.038-1.937v-0.243l-0.215-0.111c-0.125-0.065-0.252-0.064-0.238-0.057
			c-1.303-0.276-2.172-0.475-2.177-0.476c0,0-0.893-0.197-2.201-0.472l-0.146-0.054h-0.347l-0.328,0.774
			c-0.169,0.396-0.354,0.829-0.523,1.249c-0.715,1.585-1.429,3.19-1.435,3.203c-0.048,0.118-0.315,0.244-0.596,0.146l-6.186-1.982
			c-0.277-0.089-0.439-0.341-0.424-0.433c0,0,0.337-1.709,0.654-3.406l0.396-1.883l0.164-0.477h-0.494l-0.112-0.033
			c-1.196-0.521-1.988-0.85-1.988-0.85c-0.007-0.003-0.817-0.359-2.037-0.912l-0.442-0.221l-0.199,0.311
			c-0.165,0.257-0.345,0.529-0.53,0.81l-2.478,3.703c-0.061,0.092-0.381,0.157-0.659,0.034c-0.002-0.002-0.356-0.156-0.931-0.422
			c-0.532-0.201-1.187-0.564-1.931-0.986c-1.404-0.773-2.809-1.563-2.809-1.563c-0.277-0.158-0.384-0.421-0.34-0.524
			c0,0,0.615-1.644,1.248-3.267l0.203-0.518c0.176-0.448,0.351-0.894,0.496-1.296l0.117-0.322l-0.301-0.164
			c-1.203-0.659-2.024-1.129-2.027-1.129c-0.026-0.019-0.811-0.564-1.937-1.383l-0.292-0.212l-0.241,0.268
			c-0.237,0.263-0.495,0.538-0.766,0.828l-0.553,0.593c-1.189,1.249-2.397,2.496-2.405,2.504c-0.155,0.17-0.433,0.048-0.622-0.077
			c0,0-1.308-0.929-2.641-1.885c-0.731-0.51-1.304-0.952-1.71-1.321c-0.45-0.393-0.769-0.65-0.77-0.651
			c-0.243-0.218-0.3-0.516-0.238-0.624c0,0,0.891-1.487,1.781-2.991c0.357-0.573,0.714-1.149,1.014-1.646l0.172-0.389l-0.371-0.198
			l-1.69-1.491c-0.002-0.002-0.672-0.572-1.669-1.472l-0.278,0.287l0.188-0.379l-0.243-0.24l-0.275,0.202
			c-0.24,0.176-0.501,0.375-0.773,0.582c-0.246,0.187-0.501,0.381-0.753,0.567c-1.405,1.028-2.811,2.035-2.827,2.047
			c-0.095,0.077-0.398-0.013-0.57-0.194l-4.422-4.719c-0.213-0.227-0.2-0.549-0.125-0.637c0-0.001,1.146-1.327,2.295-2.631
			l0.447-0.508c0.301-0.341,0.59-0.67,0.844-0.963l0.341-0.393l-0.398-0.195l-0.03-0.039c-0.808-1.046-1.364-1.74-1.364-1.74
			c-0.007-0.01-0.542-0.72-1.332-1.727c-0.02-0.037-0.045-0.074-0.07-0.1l-0.172-0.381l-0.865,0.434
			c-0.396,0.197-0.823,0.41-1.227,0.626c-1.567,0.753-3.154,1.546-3.226,1.559c-0.145,0-0.37-0.105-0.502-0.282l-3.447-5.488
			c-0.16-0.262-0.114-0.544-0.028-0.611l2.667-2.193l1.773-1.393l-0.155-0.297c-0.02-0.037-0.045-0.075-0.08-0.119
			c-0.612-1.182-1.006-1.991-1.009-1.997c0-0.001-0.396-0.79-0.993-2.007c-0.02-0.037-0.045-0.074-0.07-0.1l-0.144-0.318
			l-0.334,0.099c-0.538,0.159-1.195,0.356-1.819,0.556c-1.688,0.473-3.376,0.972-3.407,0.976c-0.142,0-0.376-0.159-0.494-0.404
			c-0.007-0.015-0.765-1.438-1.287-2.907l-1.152-3.018c-0.116-0.295-0.035-0.575,0.062-0.633l3.045-1.699
			c0.596-0.318,1.189-0.635,1.683-0.895l0.296-0.154l-0.101-0.32c-0.024-0.077-0.054-0.157-0.065-0.178l-0.301-0.816
			c-0.099-0.271-0.184-0.506-0.242-0.646c-0.101-0.401-0.161-0.605-0.161-0.605c-0.003-0.011-0.262-0.939-0.634-2.297l-0.093-0.339
			l-0.348,0.049c-0.451,0.063-0.964,0.124-1.489,0.187l-3.911,0.406c-0.139,0-0.34-0.179-0.421-0.463l-0.827-3.071
			c-0.278-1.607-0.575-3.194-0.575-3.194c-0.052-0.305,0.083-0.566,0.192-0.605l3.288-1.146l0.681-0.225
			c0.412-0.135,0.807-0.264,1.167-0.394l0.321-0.114l-0.063-0.335c-0.255-1.38-0.413-2.329-0.414-2.337
			c0-0.002-0.04-0.219-0.095-0.564c-0.026-0.26-0.052-0.586-0.083-0.971l-0.051-0.613c0-0.063-0.011-0.116-0.021-0.139v-0.373
			l-0.372-0.026c-0.313-0.022-0.654-0.038-1.006-0.054c-0.296-0.014-0.601-0.027-0.897-0.046l-3.497-0.239
			c-0.087-0.004-0.303-0.215-0.316-0.541c0,0-0.118-1.607-0.258-3.221c-0.156-1.576-0.079-3.157-0.078-3.193
			c0-0.315,0.193-0.558,0.316-0.579l3.906-0.621c0.501-0.074,0.999-0.147,1.438-0.207l0.346-0.047v-0.501
			c0.021-1.349,0.04-2.22,0.04-2.22s0.021-0.909,0.064-2.251l0.017-0.468l-0.303-0.076c-0.561-0.14-1.218-0.28-1.862-0.416
			c-1.681-0.433-3.359-0.83-3.362-0.831c-0.146-0.04-0.283-0.304-0.247-0.597l0.771-6.404c0.051-0.304,0.282-0.499,0.414-0.499
			l3.502,0.037l2.228,0.073l0.138-0.468c0.277-1.322,0.474-2.194,0.476-2.204c0-0.002,0.179-0.867,0.486-2.25l0.02-0.401
			l-0.23-0.108c-0.422-0.197-0.922-0.405-1.427-0.615l-3.561-1.574c-0.105-0.045-0.243-0.319-0.157-0.62l1.987-6.17
			c0.078-0.258,0.292-0.459,0.456-0.416c0,0,1.681,0.315,3.398,0.65c0.346,0.074,0.691,0.142,1.021,0.208
			c0.296,0.059,0.581,0.115,0.844,0.17l0.312,0.056l0.136-0.283c0.02-0.041,0.052-0.108,0.067-0.202
			c0.518-1.193,0.865-1.98,0.867-1.985c0,0,0.356-0.832,0.89-2.058l-0.367-0.16l0.422,0.048l0.144-0.311l-4.785-3.201
			c-0.108-0.072-0.184-0.368-0.052-0.656c0-0.001,0.158-0.355,0.419-0.922c0.204-0.494,0.537-1.145,0.991-1.941l1.562-2.81
			c0.132-0.23,0.328-0.354,0.542-0.341l3.243,1.224c0.355,0.146,0.71,0.284,1.048,0.417c0.266,0.104,0.521,0.204,0.756,0.299
			l0.326,0.132l1.321-2.333l1.565-2.223l-0.248-0.238c-0.417-0.4-0.914-0.876-1.406-1.328c-1.245-1.205-2.511-2.394-2.512-2.395
			c-0.091-0.09-0.105-0.379,0.084-0.634c0,0,0.932-1.309,1.865-2.639c0.474-0.684,0.956-1.314,1.322-1.732
			c0.389-0.45,0.66-0.742,0.675-0.759c0.203-0.241,0.531-0.288,0.601-0.25c0,0,1.504,0.893,3.002,1.798
			c0.491,0.314,0.993,0.613,1.447,0.883l0.483,0.263l0.22-0.235c0.035-0.037,0.076-0.081,0.113-0.137
			c0.88-0.978,1.446-1.641,1.446-1.641l1.473-1.669c0.043-0.037,0.124-0.104,0.173-0.212l0.098-0.21l-0.134-0.189
			c-0.288-0.405-0.617-0.84-0.967-1.304l-0.186-0.246c-1.029-1.387-2.039-2.774-2.041-2.777c-0.073-0.098-0.032-0.377,0.189-0.599
			l4.745-4.432c0.176-0.175,0.585-0.151,0.625-0.122c0,0,1.307,1.151,2.63,2.296c0.257,0.234,0.518,0.464,0.77,0.686
			c0.237,0.208,0.466,0.41,0.677,0.603l0.364,0.171l0.271-0.271c1.045-0.808,1.758-1.344,1.764-1.349
			c0.001,0,0.71-0.553,1.822-1.397c0.037-0.029,0.083-0.066,0.119-0.103l0.201-0.204l-0.127-0.256
			c-0.128-0.258-0.271-0.535-0.419-0.822c-0.148-0.288-0.302-0.585-0.449-0.88c-0.776-1.587-1.55-3.153-1.55-3.153
			c-0.057-0.114,0.034-0.413,0.25-0.575l5.498-3.452c0.213-0.138,0.542-0.135,0.622-0.044l2.179,2.693
			c0.414,0.515,0.83,1.048,1.184,1.504l0.261,0.397l0.32-0.343l0.078-0.044c1.183-0.6,1.957-1.008,1.958-1.008
			c0.006-0.003,0.775-0.391,1.956-0.969c0.071-0.021,0.132-0.054,0.182-0.081l0.309-0.152l-0.104-0.328
			c-0.175-0.552-0.374-1.18-0.552-1.836c-0.497-1.664-0.969-3.343-0.971-3.348c-0.036-0.121,0.101-0.397,0.396-0.545
			c0.014-0.007,1.424-0.749,2.906-1.287c1.503-0.556,3.01-1.148,3.01-1.148c0.272-0.097,0.597-0.005,0.645,0.071
			c0,0,0.833,1.53,1.684,3.03c0.316,0.595,0.635,1.192,0.914,1.707l0.255,0.472l0.334-0.334c0.008-0.002,0.021-0.007,0.041-0.014
			c0.37-0.137,0.699-0.255,0.983-0.357l3.713-1.086l-0.038-0.34c-0.062-0.561-0.143-1.239-0.238-1.902l-0.359-3.492
			c-0.011-0.1,0.16-0.342,0.459-0.423l3.102-0.826c1.583-0.296,3.167-0.571,3.166-0.571c0.302-0.054,0.584,0.082,0.624,0.165
			c0,0,0.555,1.67,1.129,3.313l0.166,0.492c0.16,0.476,0.314,0.933,0.448,1.347l0.108,0.334l0.345-0.063
			c1.379-0.251,2.301-0.429,2.301-0.431c0.02-0.001,0.246-0.022,0.6-0.081l0.433-0.043c0.336-0.034,0.731-0.074,1.153-0.113h0.512
			l0.026-0.372c0.041-0.58,0.081-1.26,0.099-1.919c0.139-1.727,0.238-3.475,0.238-3.475c0.007-0.118,0.229-0.313,0.542-0.339
			l3.242-0.239c0.818-0.08,1.644-0.097,2.192-0.097c0.583,0,0.974,0.019,0.998,0.019c0.304,0,0.542,0.167,0.558,0.297l0.558,3.457
			c0.082,0.468,0.146,0.937,0.204,1.366l0.122,0.868h0.494c1.342,0.038,2.235,0.04,2.231,0.037c0.018,0.001,0.907,0.043,2.258,0.081
			h0.449l0.078-0.3c0.143-0.559,0.299-1.199,0.439-1.866l0.83-3.372c0.023-0.103,0.23-0.253,0.576-0.211l6.388,0.746
			c0.321,0.067,0.534,0.31,0.534,0.436c0,0-0.021,1.743-0.059,3.482c-0.018,0.674-0.039,1.368-0.059,1.943l-0.053,0.408h0.413
			l0.165-0.366l-0.053,0.402c1.309,0.279,2.186,0.456,2.186,0.456c0.002,0.001,0.869,0.179,2.285,0.501l0.361,0.128l0.143-0.356
			c0.119-0.297,0.26-0.617,0.403-0.947c0.116-0.267,0.235-0.54,0.349-0.811c0.688-1.613,1.397-3.19,1.397-3.19
			c0.065-0.133,0.403-0.264,0.626-0.195l6.158,1.982c0.303,0.105,0.461,0.334,0.434,0.458l-0.633,3.393
			c-0.109,0.47-0.202,0.921-0.287,1.34l-0.157,0.754l0.164,0.154c0.097,0.091,0.204,0.121,0.255,0.135
			c1.247,0.534,2.057,0.889,2.058,0.89c0,0,0.792,0.347,1.995,0.852c0.057,0.04,0.111,0.065,0.15,0.083l0.322,0.18l0.205-0.307
			c0.321-0.479,0.701-1.059,1.047-1.62c0.995-1.428,1.947-2.9,1.947-2.901c0.059-0.088,0.371-0.164,0.662-0.03
			c0.004,0.001,0.371,0.157,0.936,0.419c0.564,0.231,1.262,0.583,1.921,0.969c1.423,0.791,2.81,1.582,2.817,1.585
			c0.286,0.156,0.402,0.417,0.352,0.54c0,0-0.615,1.623-1.25,3.253c-0.232,0.627-0.49,1.255-0.707,1.764l-0.139,0.325l2.34,1.352
			c0,0,0.795,0.556,1.969,1.35l0.279,0.188l0.234-0.243c0.178-0.186,0.378-0.4,0.588-0.624c0.232-0.249,0.479-0.511,0.721-0.763
			l2.414-2.533c0.045-0.044,0.407-0.074,0.63,0.082c0,0,1.312,0.956,2.706,1.917c0.605,0.441,1.23,0.897,1.646,1.293l0.759,0.657
			c0.244,0.206,0.313,0.497,0.252,0.601l-1.78,3.005l-0.134,0.215c-0.313,0.506-0.62,1-0.881,1.436l-0.17,0.409l0.369,0.198
			c1.009,0.87,1.678,1.462,1.679,1.462c0.003,0.002,0.659,0.598,1.669,1.458l0.207,0.448l0.818-0.615
			c0.354-0.267,0.725-0.548,1.121-0.833c1.38-1.021,2.781-2.047,2.783-2.049c0.112-0.078,0.435,0.022,0.613,0.2l4.431,4.749
			c0.193,0.192,0.193,0.494,0.1,0.602c0,0-1.132,1.31-2.319,2.697c-0.442,0.484-0.882,0.964-1.249,1.389l-0.169,0.195l0.109,0.234
			c0.046,0.101,0.115,0.17,0.143,0.191c0.809,1.069,1.344,1.782,1.349,1.788c0,0,0.558,0.716,1.357,1.72
			c0.023,0.053,0.063,0.142,0.144,0.222l0.211,0.21l0.262-0.141c0.448-0.241,0.955-0.497,1.469-0.756l0.225-0.113
			c1.584-0.793,3.168-1.562,3.244-1.572c0.145,0,0.361,0.095,0.5,0.279l3.428,5.469c0.173,0.278,0.133,0.563,0.047,0.631
			c-0.001,0-1.347,1.105-2.699,2.181c-0.459,0.389-0.918,0.747-1.334,1.071l-0.396,0.31l0.143,0.291
			c0.014,0.03,0.037,0.07,0.082,0.146c0.613,1.208,1.012,2.001,1.012,2.001l0.996,1.998c0.025,0.055,0.055,0.12,0.101,0.186
			l0.169,0.248l0.286-0.094c0.524-0.172,1.163-0.369,1.811-0.568c1.683-0.496,3.365-0.969,3.405-0.976
			c0.144,0,0.371,0.155,0.489,0.402c0.007,0.014,0.747,1.42,1.29,2.927l1.146,3.01c0.106,0.29,0.024,0.57-0.076,0.621
			c0,0-1.528,0.854-3.026,1.704l-0.253,0.135c-0.511,0.273-1.011,0.541-1.439,0.781l-0.352,0.176l0.249,0.496
			c0.211,0.596,0.401,1.112,0.527,1.449l0.885,3.203l0.338-0.036c0.574-0.062,1.231-0.139,1.904-0.22l3.499-0.396
			c0.118,0,0.341,0.188,0.43,0.475c0,0,0.396,1.57,0.826,3.082l0.558,3.186c0.065,0.312-0.085,0.575-0.177,0.61
			c0,0-1.665,0.573-3.298,1.147c-0.301,0.093-0.605,0.195-0.901,0.294c-0.325,0.109-0.638,0.214-0.919,0.298l-0.344,0.103
			l0.064,0.353c0.26,1.402,0.416,2.33,0.416,2.332c0.001,0.006,0.039,0.234,0.078,0.609c0.039,0.376,0.098,0.928,0.154,1.545v0.531
			l0.373,0.025c0.598,0.04,1.252,0.082,1.929,0.122c1.741,0.099,3.464,0.216,3.469,0.217c0.12,0.007,0.311,0.216,0.337,0.523
			l0.237,3.238C189.651,97.934,189.596,99.539,189.596,99.553z"/>
		<path fill="#FFFFFF" d="M131.086,54.79c1.155,0.729,2.484,1.115,3.845,1.115c2.487,0,4.769-1.256,6.103-3.361
			c1.026-1.625,1.361-3.554,0.943-5.428c-0.42-1.878-1.545-3.476-3.168-4.5c-1.162-0.735-2.498-1.124-3.863-1.124
			c-2.486,0-4.762,1.253-6.084,3.35c-1.035,1.623-1.373,3.551-0.951,5.431C128.331,52.148,129.458,53.753,131.086,54.79z
			 M129.537,45.27c1.176-1.864,3.198-2.978,5.408-2.978c1.214,0,2.402,0.346,3.436,1c1.443,0.91,2.442,2.33,2.814,3.998
			c0.372,1.667,0.074,3.381-0.839,4.827c-1.186,1.872-3.214,2.989-5.426,2.989c-1.208,0-2.391-0.343-3.417-0.991
			c-1.445-0.922-2.449-2.349-2.822-4.017C128.316,48.427,128.616,46.713,129.537,45.27z"/>
		<path fill="#FFFFFF" d="M42.461,106.65c-0.536,0-1.075,0.062-1.601,0.182c-3.868,0.854-6.317,4.713-5.459,8.602
			c0.726,3.26,3.696,5.625,7.061,5.625c0.516,0,1.035-0.056,1.546-0.166c3.867-0.881,6.313-4.749,5.454-8.625
			C48.713,108.961,45.835,106.65,42.461,106.65z M43.834,120.111c-0.452,0.098-0.914,0.147-1.373,0.147
			c-2.993,0-5.634-2.103-6.279-4.997c-0.763-3.459,1.413-6.889,4.854-7.649c0.47-0.106,0.95-0.161,1.426-0.161
			c2.998,0,5.555,2.053,6.219,4.991C49.445,115.889,47.269,119.33,43.834,120.111z"/>
		<path fill="#FFFFFF" d="M161.949,79.809c-0.535,0-1.072,0.061-1.598,0.179c-1.88,0.417-3.484,1.544-4.516,3.173
			c-1.032,1.627-1.365,3.558-0.939,5.436c0.752,3.314,3.644,5.628,7.031,5.628c0.525,0,1.055-0.058,1.574-0.173
			c1.889-0.429,3.498-1.568,4.529-3.208c1.021-1.624,1.35-3.541,0.924-5.398C168.207,82.126,165.325,79.809,161.949,79.809z
			 M167.354,90.418c-0.917,1.459-2.348,2.472-4.027,2.853c-0.461,0.103-0.932,0.154-1.398,0.154c-3.012,0-5.582-2.059-6.252-5.005
			c-0.378-1.669-0.082-3.384,0.836-4.832c0.917-1.447,2.342-2.449,4.016-2.82c0.469-0.106,0.946-0.16,1.422-0.16
			c3,0,5.56,2.062,6.227,5.015C168.553,87.272,168.262,88.976,167.354,90.418z"/>
		<path fill="#FFFFFF" d="M157.761,127.102c-1.155-0.734-2.487-1.124-3.851-1.124c-2.482,0-4.763,1.253-6.102,3.354
			c-2.098,3.357-1.09,7.818,2.246,9.944c1.155,0.736,2.488,1.125,3.856,1.125c2.493,0,4.771-1.252,6.093-3.35
			C162.117,133.703,161.111,129.24,157.761,127.102z M159.326,136.625c-1.174,1.863-3.199,2.977-5.415,2.977
			c-1.215,0-2.399-0.347-3.427-1.002c-2.967-1.891-3.863-5.857-2-8.842c1.189-1.865,3.219-2.98,5.426-2.98
			c1.211,0,2.395,0.346,3.42,1C160.311,129.678,161.207,133.647,159.326,136.625z"/>
		<path fill="#FFFFFF" d="M115.58,152.966c-0.525,0-1.055,0.059-1.574,0.174c-3.859,0.88-6.299,4.748-5.437,8.623
			c0.72,3.254,3.667,5.616,7.005,5.616c0.535,0,1.073-0.061,1.598-0.18c1.877-0.415,3.479-1.54,4.51-3.169
			c1.029-1.625,1.366-3.556,0.949-5.438C121.887,155.332,118.922,152.966,115.58,152.966z M121.006,163.603
			c-0.917,1.447-2.34,2.447-4.01,2.816c-0.468,0.105-0.947,0.16-1.422,0.16c-2.967,0-5.584-2.099-6.224-4.99
			c-0.767-3.446,1.401-6.888,4.83-7.669c0.462-0.103,0.933-0.154,1.399-0.154c2.972,0,5.608,2.105,6.27,5.003
			C122.221,160.44,121.92,162.157,121.006,163.603z"/>
		<path fill="#FFFFFF" d="M73.273,146.094c-1.155-0.736-2.486-1.125-3.85-1.125c-2.481,0-4.761,1.251-6.1,3.35
			c-2.115,3.35-1.107,7.813,2.248,9.95c1.152,0.72,2.477,1.1,3.831,1.1c2.493,0,4.772-1.252,6.096-3.347
			c1.033-1.622,1.37-3.548,0.95-5.424C76.027,148.721,74.899,147.12,73.273,146.094z M74.822,155.593
			c-1.177,1.863-3.203,2.976-5.42,2.976c-1.204,0-2.382-0.339-3.404-0.976c-2.982-1.9-3.878-5.869-1.999-8.847
			c1.189-1.865,3.217-2.979,5.424-2.979c1.211,0,2.394,0.347,3.421,1.002c1.446,0.913,2.449,2.334,2.823,4.003
			C76.041,152.439,75.741,154.15,74.822,155.593z"/>
		<path fill="#FFFFFF" d="M57.479,66.096c-0.42-1.879-1.549-3.48-3.179-4.51c-1.155-0.729-2.484-1.114-3.844-1.114
			c-2.488,0-4.77,1.256-6.103,3.359c-1.024,1.615-1.356,3.54-0.933,5.418c0.424,1.884,1.553,3.486,3.179,4.511
			c1.151,0.726,2.477,1.11,3.833,1.11c2.49,0,4.769-1.255,6.095-3.355C57.561,69.896,57.898,67.971,57.479,66.096z M55.852,71.088
			c-1.18,1.868-3.206,2.983-5.419,2.983c-1.205,0-2.382-0.341-3.406-0.987c-1.445-0.911-2.448-2.335-2.825-4.01
			c-0.376-1.67-0.082-3.38,0.828-4.814c1.186-1.871,3.214-2.988,5.427-2.988c1.208,0,2.39,0.343,3.417,0.991
			c1.448,0.915,2.452,2.338,2.825,4.008C57.071,67.936,56.771,69.646,55.852,71.088z"/>
	</g>
	<g>
		<g>
			<g>
				<g>
					<polygon fill="#FFFFFF" points="82.878,35.189 80.259,35.137 81.349,36.27 83.968,36.322 84.02,33.703 82.93,32.57 					"/>
				</g>
			</g>
		</g>
		<g>
			<g>
				<g>
					<polygon fill="#FFFFFF" points="92.925,45.851 92.874,48.47 93.963,49.603 94.015,46.984 96.634,47.036 95.545,45.903 					"/>
				</g>
			</g>
		</g>
	</g>
</g>
</svg>
