<?xml version="1.0" encoding="utf-8"?>
<!-- Generator: Adobe Illustrator 16.0.2, SVG Export Plug-In . SVG Version: 6.00 Build 0)  -->
<!DOCTYPE svg PUBLIC "-//W3C//DTD SVG 1.1//EN" "http://www.w3.org/Graphics/SVG/1.1/DTD/svg11.dtd">
<svg version="1.1" id="Layer_1" xmlns="http://www.w3.org/2000/svg" xmlns:xlink="http://www.w3.org/1999/xlink" x="0px" y="0px"
	 width="25.912px" height="25.911px" viewBox="0 0 25.912 25.911" enable-background="new 0 0 25.912 25.911" xml:space="preserve">
<g>
	<g>
		<linearGradient id="SVGID_1_" gradientUnits="userSpaceOnUse" x1="0" y1="12.9551" x2="25.9121" y2="12.9551">
			<stop  offset="0" style="stop-color:#F79F55"/>
			<stop  offset="1" style="stop-color:#FAD255"/>
		</linearGradient>
		<path fill="url(#SVGID_1_)" d="M23.773,10.153c-0.264-1.019-0.668-1.979-1.188-2.863l1.207-1.818l-1.676-1.677l-1.678-1.678
			l-1.818,1.209c-0.883-0.521-1.846-0.925-2.863-1.188L15.328,0h-2.373h-2.371l-0.43,2.139c-1.02,0.263-1.98,0.667-2.863,1.188
			L5.473,2.117L3.795,3.795L2.117,5.472L3.326,7.29c-0.521,0.884-0.924,1.845-1.188,2.863L0,10.583v2.372v2.372l2.139,0.431
			c0.264,1.019,0.666,1.979,1.188,2.863l-1.209,1.818l1.678,1.677l1.678,1.678l1.818-1.209c0.883,0.521,1.844,0.924,2.863,1.188
			l0.43,2.139h2.371h2.373l0.43-2.139c1.018-0.264,1.98-0.667,2.863-1.188l1.818,1.209l1.678-1.678l1.676-1.677l-1.207-1.818
			c0.52-0.884,0.924-1.845,1.188-2.863l2.139-0.431v-2.372v-2.372L23.773,10.153z M12.955,21.267c-4.59,0-8.311-3.721-8.311-8.312
			c0-4.59,3.721-8.311,8.311-8.311c4.592,0,8.313,3.721,8.313,8.311C21.268,17.546,17.547,21.267,12.955,21.267z"/>
	</g>
</g>
</svg>
