<?xml version="1.0" encoding="utf-8"?>
<!-- Generator: Adobe Illustrator 16.0.2, SVG Export Plug-In . SVG Version: 6.00 Build 0)  -->
<!DOCTYPE svg PUBLIC "-//W3C//DTD SVG 1.1//EN" "http://www.w3.org/Graphics/SVG/1.1/DTD/svg11.dtd">
<svg version="1.1" id="Layer_1" xmlns="http://www.w3.org/2000/svg" xmlns:xlink="http://www.w3.org/1999/xlink" x="0px" y="0px"
	 width="54.521px" height="54.521px" viewBox="0 0 54.521 54.521" enable-background="new 0 0 54.521 54.521" xml:space="preserve">
<g>
	<g>
		<linearGradient id="SVGID_1_" gradientUnits="userSpaceOnUse" x1="0" y1="27.2607" x2="54.521" y2="27.2607">
			<stop  offset="0" style="stop-color:#F79F55"/>
			<stop  offset="1" style="stop-color:#FAD255"/>
		</linearGradient>
		<path fill="url(#SVGID_1_)" d="M50.021,21.364c-0.553-2.143-1.402-4.165-2.498-6.024l2.543-3.826l-3.529-3.529l-3.529-3.529
			l-3.826,2.544C37.322,5.903,35.3,5.054,33.158,4.5L32.251,0h-4.991H22.27l-0.905,4.5c-2.143,0.554-4.165,1.403-6.025,2.499
			l-3.825-2.544L7.984,7.984l-3.529,3.529l2.544,3.826c-1.097,1.859-1.945,3.882-2.499,6.024L0,22.271v4.99v4.991l4.5,0.906
			c0.554,2.142,1.402,4.164,2.499,6.024l-2.544,3.825l3.529,3.529l3.529,3.529l3.825-2.544c1.86,1.097,3.883,1.945,6.025,2.499
			l0.905,4.5h4.991h4.991l0.906-4.5c2.143-0.554,4.164-1.402,6.023-2.499l3.826,2.544l3.529-3.529l3.529-3.529l-2.543-3.825
			c1.096-1.86,1.945-3.883,2.498-6.024l4.5-0.906v-4.991v-4.99L50.021,21.364z M27.261,44.75c-9.659,0-17.489-7.83-17.489-17.489
			s7.83-17.489,17.489-17.489c9.659,0,17.489,7.83,17.489,17.489S36.919,44.75,27.261,44.75z"/>
	</g>
</g>
</svg>
